<?xml version="1.0" encoding="UTF-8" standalone="no"?>
<!-- Created with Inkscape (http://www.inkscape.org/) -->

<svg
   xmlns:dc="http://purl.org/dc/elements/1.1/"
   xmlns:cc="http://creativecommons.org/ns#"
   xmlns:rdf="http://www.w3.org/1999/02/22-rdf-syntax-ns#"
   xmlns:svg="http://www.w3.org/2000/svg"
   xmlns="http://www.w3.org/2000/svg"
   xmlns:sodipodi="http://sodipodi.sourceforge.net/DTD/sodipodi-0.dtd"
   xmlns:inkscape="http://www.inkscape.org/namespaces/inkscape"
   width="210mm"
   height="297mm"
   viewBox="0 0 210 297"
   version="1.1"
   id="svg8"
   inkscape:version="0.92.3 (2405546, 2018-03-11)"
   sodipodi:docname="Zeichnung.svg">
  <defs
     id="defs2">
    <marker
       inkscape:stockid="TriangleOutM"
       orient="auto"
       refY="0.0"
       refX="0.0"
       id="TriangleOutM"
       style="overflow:visible"
       inkscape:isstock="true">
      <path
         id="path4797"
         d="M 5.77,0.0 L -2.88,5.0 L -2.88,-5.0 L 5.77,0.0 z "
         style="fill-rule:evenodd;stroke:#000000;stroke-width:1pt;stroke-opacity:1;fill:#000000;fill-opacity:1"
         transform="scale(0.4)" />
    </marker>
    <marker
       inkscape:stockid="CurveOut"
       orient="auto"
       refY="0.0"
       refX="0.0"
       id="CurveOut"
       style="overflow:visible"
       inkscape:isstock="true">
      <path
         id="path4839"
         d="M -5.4129913,-5.0456926 C -2.6529913,-5.0456926 -0.41299131,-2.8056926 -0.41299131,-0.045692580 C -0.41299131,2.7143074 -2.6529913,4.9543074 -5.4129913,4.9543074"
         style="fill:none;fill-rule:evenodd;stroke:#000000;stroke-width:1pt;stroke-opacity:1"
         transform="scale(0.6)" />
    </marker>
    <marker
       inkscape:stockid="Arrow2Mend"
       orient="auto"
       refY="0.0"
       refX="0.0"
       id="Arrow2Mend"
       style="overflow:visible;"
       inkscape:isstock="true">
      <path
         id="path4679"
         style="fill-rule:evenodd;stroke-width:0.625;stroke-linejoin:round;stroke:#000000;stroke-opacity:1;fill:#000000;fill-opacity:1"
         d="M 8.7185878,4.0337352 L -2.2072895,0.016013256 L 8.7185884,-4.0017078 C 6.9730900,-1.6296469 6.9831476,1.6157441 8.7185878,4.0337352 z "
         transform="scale(0.6) rotate(180) translate(0,0)" />
    </marker>
    <marker
       inkscape:stockid="TriangleOutM"
       orient="auto"
       refY="0"
       refX="0"
       id="TriangleOutM-7"
       style="overflow:visible"
       inkscape:isstock="true">
      <path
         inkscape:connector-curvature="0"
         id="path4797-5"
         d="M 5.77,0 -2.88,5 V -5 Z"
         style="fill:#000000;fill-opacity:1;fill-rule:evenodd;stroke:#000000;stroke-width:1.00000003pt;stroke-opacity:1"
         transform="scale(0.4)" />
    </marker>
  </defs>
  <sodipodi:namedview
     id="base"
     pagecolor="#ffffff"
     bordercolor="#666666"
     borderopacity="1.0"
     inkscape:pageopacity="0.0"
     inkscape:pageshadow="2"
     inkscape:zoom="1.979899"
     inkscape:cx="215.67701"
     inkscape:cy="905.86132"
     inkscape:document-units="mm"
     inkscape:current-layer="layer1"
     showgrid="false"
     inkscape:window-width="1920"
     inkscape:window-height="1016"
     inkscape:window-x="0"
     inkscape:window-y="27"
     inkscape:window-maximized="1" />
  <metadata
     id="metadata5">
    <rdf:RDF>
      <cc:Work
         rdf:about="">
        <dc:format>image/svg+xml</dc:format>
        <dc:type
           rdf:resource="http://purl.org/dc/dcmitype/StillImage" />
        <dc:title></dc:title>
      </cc:Work>
    </rdf:RDF>
  </metadata>
  <g
     inkscape:label="Ebene 1"
     inkscape:groupmode="layer"
     id="layer1">
    <path
       inkscape:connector-curvature="0"
       id="rect4526-6"
       d="m 45.731554,28.255363 h 27.97737 c -11.04857,11.24475 -7.99769,21.005346 0,30.245226 h -27.97737 c 6.03499,-9.193023 10.80994,-19.019857 0,-30.245226 z"
       style="fill:#f27d20;fill-opacity:1;stroke:#ffffff;stroke-width:0.18204625;stroke-miterlimit:4;stroke-dasharray:none;stroke-opacity:1"
       sodipodi:nodetypes="ccccc" />
    <g
       id="text4520"
       style="font-style:normal;font-weight:normal;font-size:10.58333302px;line-height:125%;font-family:sans-serif;letter-spacing:0px;word-spacing:0px;fill:#000000;fill-opacity:1;stroke:none;stroke-width:0.26458332px;stroke-linecap:butt;stroke-linejoin:miter;stroke-opacity:1"
       aria-label="CSS"
       transform="matrix(0.67680644,0,0,1,22.234178,0)">
      <path
         inkscape:connector-curvature="0"
         id="path4544"
         style="stroke-width:0.26458332px"
         d="m 51.039334,33.989107 v 1.100708 q -0.527099,-0.490926 -1.126546,-0.733806 -0.594279,-0.242879 -1.266072,-0.242879 -1.322917,0 -2.025716,0.81132 -0.7028,0.806152 -0.7028,2.335775 0,1.524454 0.7028,2.335774 0.702799,0.806153 2.025716,0.806153 0.671793,0 1.266072,-0.242879 0.599447,-0.24288 1.126546,-0.733806 v 1.090373 q -0.54777,0.37207 -1.162719,0.558105 -0.609782,0.186036 -1.291911,0.186036 -1.751831,0 -2.759521,-1.069703 -1.007691,-1.074869 -1.007691,-2.930053 0,-1.860352 1.007691,-2.930054 1.00769,-1.07487 2.759521,-1.07487 0.692464,0 1.302246,0.186036 0.61495,0.180867 1.152384,0.54777 z" />
      <path
         inkscape:connector-curvature="0"
         id="path4546"
         style="stroke-width:0.26458332px"
         d="m 57.287015,33.648042 v 1.018026 q -0.594279,-0.28422 -1.121379,-0.423747 -0.527099,-0.139526 -1.018025,-0.139526 -0.852661,0 -1.317749,0.330729 -0.45992,0.330729 -0.45992,0.940511 0,0.511597 0.30489,0.775147 0.310059,0.258382 1.167888,0.418579 l 0.630452,0.129191 q 1.167888,0.222208 1.720825,0.785481 0.558106,0.558106 0.558106,1.498617 0,1.121378 -0.754476,1.700154 -0.749308,0.578777 -2.201416,0.578777 -0.54777,0 -1.167887,-0.124024 -0.61495,-0.124023 -1.276408,-0.366903 v -1.074869 q 0.63562,0.356567 1.245402,0.537435 0.609782,0.180867 1.198893,0.180867 0.894002,0 1.379761,-0.3514 0.485758,-0.351399 0.485758,-1.002522 0,-0.568441 -0.3514,-0.888835 -0.346232,-0.320394 -1.142049,-0.480591 l -0.63562,-0.124023 q -1.167887,-0.232544 -1.689819,-0.728638 -0.521932,-0.496094 -0.521932,-1.379761 0,-1.023193 0.718302,-1.612304 0.72347,-0.589112 1.989543,-0.589112 0.542602,0 1.105876,0.09819 0.563273,0.09819 1.152384,0.294555 z" />
      <path
         inkscape:connector-curvature="0"
         id="path4548"
         style="stroke-width:0.26458332px"
         d="m 64.004951,33.648042 v 1.018026 q -0.594279,-0.28422 -1.121379,-0.423747 -0.527099,-0.139526 -1.018025,-0.139526 -0.852661,0 -1.317749,0.330729 -0.45992,0.330729 -0.45992,0.940511 0,0.511597 0.30489,0.775147 0.310059,0.258382 1.167888,0.418579 l 0.630452,0.129191 q 1.167888,0.222208 1.720825,0.785481 0.558106,0.558106 0.558106,1.498617 0,1.121378 -0.754476,1.700154 -0.749308,0.578777 -2.201416,0.578777 -0.54777,0 -1.167887,-0.124024 -0.61495,-0.124023 -1.276408,-0.366903 v -1.074869 q 0.63562,0.356567 1.245402,0.537435 0.609782,0.180867 1.198893,0.180867 0.894002,0 1.379761,-0.3514 0.485758,-0.351399 0.485758,-1.002522 0,-0.568441 -0.3514,-0.888835 -0.346232,-0.320394 -1.142049,-0.480591 l -0.63562,-0.124023 q -1.167887,-0.232544 -1.689819,-0.728638 -0.521932,-0.496094 -0.521932,-1.379761 0,-1.023193 0.718302,-1.612304 0.72347,-0.589112 1.989543,-0.589112 0.542602,0 1.105876,0.09819 0.563273,0.09819 1.152384,0.294555 z" />
    </g>
    <g
       id="text4524"
       style="font-style:normal;font-weight:normal;font-size:10.58333302px;line-height:125%;font-family:sans-serif;letter-spacing:0px;word-spacing:0px;fill:#000000;fill-opacity:1;stroke:none;stroke-width:0.26458332px;stroke-linecap:butt;stroke-linejoin:miter;stroke-opacity:1"
       aria-label="JS"
       transform="matrix(0.67680644,0,0,1,22.234178,0)">
      <path
         inkscape:connector-curvature="0"
         id="path4551"
         style="stroke-width:0.26458332px"
         d="m 52.065483,46.623996 h 1.043864 v 7.177856 q 0,1.395264 -0.532267,2.025716 -0.5271,0.630452 -1.700155,0.630452 h -0.397908 v -0.878499 h 0.325561 q 0.692464,0 0.976685,-0.387573 0.28422,-0.387573 0.28422,-1.390096 z" />
      <path
         inkscape:connector-curvature="0"
         id="path4553"
         style="stroke-width:0.26458332px"
         d="m 59.81178,46.87721 v 1.018026 q -0.594279,-0.28422 -1.121379,-0.423747 -0.527099,-0.139526 -1.018025,-0.139526 -0.852661,0 -1.317749,0.330729 -0.45992,0.330729 -0.45992,0.940511 0,0.511597 0.30489,0.775146 0.310059,0.258383 1.167888,0.41858 l 0.630452,0.129191 q 1.167888,0.222208 1.720825,0.785481 0.558106,0.558106 0.558106,1.498617 0,1.121378 -0.754476,1.700154 -0.749308,0.578776 -2.201416,0.578776 -0.54777,0 -1.167887,-0.124023 -0.61495,-0.124023 -1.276408,-0.366903 v -1.074869 q 0.63562,0.356567 1.245402,0.537434 0.609782,0.180868 1.198893,0.180868 0.894002,0 1.379761,-0.3514 0.485758,-0.351399 0.485758,-1.002522 0,-0.568441 -0.3514,-0.888835 -0.346232,-0.320394 -1.142049,-0.480591 l -0.63562,-0.124023 q -1.167887,-0.232544 -1.689819,-0.728638 -0.521932,-0.496094 -0.521932,-1.379761 0,-1.023193 0.718302,-1.612304 0.72347,-0.589112 1.989543,-0.589112 0.542602,0 1.105876,0.09819 0.563273,0.09819 1.152384,0.294555 z" />
    </g>
    <path
       style="fill:none;fill-rule:evenodd;stroke:#000000;stroke-width:0.92489296;stroke-linecap:butt;stroke-linejoin:miter;stroke-miterlimit:4;stroke-dasharray:none;stroke-opacity:1;marker-end:url(#TriangleOutM)"
       d="m 45.485464,42.529214 4.160795,0.185317"
       id="path4650"
       inkscape:connector-curvature="0" />
    <path
       style="fill:none;fill-rule:evenodd;stroke:#000000;stroke-width:0.92489296;stroke-linecap:butt;stroke-linejoin:miter;stroke-miterlimit:4;stroke-dasharray:none;stroke-opacity:1;marker-end:url(#TriangleOutM-7)"
       d="m 73.006266,42.833379 -4.160795,0.185317"
       id="path4650-3"
       inkscape:connector-curvature="0" />
  </g>
</svg>
